<svg width="27" height="18" fill="none" xmlns="http://www.w3.org/2000/svg"><path d="M10.875 8.11c1.5-.72 2.25-1.86 2.25-3.422 0-1.563-.516-2.672-1.547-3.329-.875-.562-2.125-.843-3.75-.843H0v16.64h8.063c1.656 0 3-.39 4.03-1.172 1.22-.843 1.829-2.062 1.829-3.656 0-1.062-.266-1.953-.797-2.672-.5-.75-1.25-1.265-2.25-1.547zM3.656 3.374h3.422c1.656 0 2.484.625 2.484 1.875 0 .688-.203 1.203-.609 1.547-.375.312-.906.469-1.594.469H3.656v-3.89zm3.89 10.969h-3.89V9.75h3.985c1.75 0 2.625.797 2.625 2.39 0 1.47-.907 2.204-2.72 2.204zm16.83-11.296h-6.75v-1.64h6.75v1.64zM27 11.297c0-1.844-.5-3.375-1.5-4.594-1.094-1.281-2.547-1.922-4.36-1.922-1.187 0-2.25.282-3.187.844a5.985 5.985 0 00-2.203 2.297c-.5.969-.75 2.047-.75 3.234 0 1.875.547 3.39 1.64 4.547 1.126 1.156 2.626 1.735 4.5 1.735 2.876 0 4.75-1.344 5.626-4.032h-2.907c-.156.5-.5.89-1.03 1.172a3.2 3.2 0 01-1.595.422c-.937 0-1.672-.266-2.203-.797-.5-.531-.75-1.297-.75-2.297h8.672l.047-.61zm-8.719-1.453c.063-.781.344-1.406.844-1.875.5-.469 1.14-.703 1.922-.703.812 0 1.437.234 1.875.703.437.437.687 1.062.75 1.875h-5.39z" fill="#B2B2B2"/></svg>