<svg width="24" height="24" fill="none" xmlns="http://www.w3.org/2000/svg"><path d="M23.531 7.5L12.563.187c-.376-.25-.75-.25-1.126 0L.47 7.5c-.314.188-.47.469-.47.844v7.312c0 .375.156.656.469.844l10.969 7.313c.374.25.75.25 1.124 0l10.97-7.313c.312-.188.468-.469.468-.844V8.344c0-.375-.156-.656-.469-.844zm-10.5-4.547l8.063 5.39-3.61 2.391-4.453-2.953V2.953zm-2.062 0v4.828l-4.453 2.953-3.61-2.39 8.063-5.39zm-8.906 7.313L4.64 12l-2.579 1.734v-3.468zm8.906 10.78l-8.063-5.39 3.61-2.39 4.453 2.953v4.828zM12 14.439L8.344 12 12 9.562 15.656 12 12 14.438zm1.031 6.609V16.22l4.453-2.953 3.61 2.39-8.063 5.39zm8.906-7.313L19.36 12l2.578-1.734v3.468z" fill="#B2B2B2"/></svg>