<svg width="21" height="22" fill="none" xmlns="http://www.w3.org/2000/svg"><path d="M4.688 21.5H.327V7.484h4.36V21.5zM2.53 5.562c-.687 0-1.281-.25-1.781-.75S0 3.72 0 3.032C0 2.343.25 1.75.75 1.25S1.844.5 2.531.5c.688 0 1.281.25 1.781.75s.75 1.094.75 1.781c0 .688-.25 1.281-.75 1.781s-1.093.75-1.78.75zM21 21.5h-4.36v-6.844c0-1.125-.093-1.937-.28-2.437-.344-.844-1.016-1.266-2.016-1.266s-1.703.375-2.11 1.125c-.312.563-.468 1.39-.468 2.485V21.5H7.453V7.484h4.172v1.922h.047c.312-.625.812-1.14 1.5-1.547.75-.5 1.625-.75 2.625-.75 2.031 0 3.453.641 4.265 1.922.625 1.031.938 2.625.938 4.781V21.5z" fill="#B2B2B2"/></svg>